<svg xmlns="http://www.w3.org/2000/svg" viewBox="0 0 1121.80595 699.0818" width="1121.80595" height="699.0818">
  <circle cx="500" cy="350" r="200" fill="#ff6584"/>
  <circle cx="700" cy="200" r="100" fill="#f2f2f2"/>
  <ellipse cx="700" cy="600" rx="150" ry="40" fill="#3f3d56"/>
  <path d="M 200 300 Q 250 350 200 400" fill="none" stroke="#2f2e41" stroke-width="5"/>
  <rect x="350" y="400" width="150" height="50" fill="#335eea"/>
  <circle cx="650" cy="500" r="50" fill="#335eea"/>
  <rect x="700" y="450" width="30" height="30" fill="#ff6584" opacity="0.7"/>
  <path d="M 800 300 Q 850 350 800 400" fill="none" stroke="#ff6584" stroke-width="3" opacity="0.5"/>
  <ellipse cx="400" cy="500" rx="100" ry="20" fill="#3f3d56" opacity="0.3"/>
  <circle cx="300" cy="550" r="80" fill="#2f2e41"/>
  <path d="M 700 300 L 750 350 L 700 400 Z" fill="#ffb9b9"/>
  <path d="M 850 300 L 900 350 L 850 400 Z" fill="#ffb9b9" opacity="0.1"/>
  <rect x="50" y="150" width="100" height="100" fill="#f2f2f2"/>
  <rect x="200" y="200" width="100" height="100" fill="#335eea"/>
</svg>
